<svg id="グループ化_1339" data-name="グループ化 1339" xmlns="http://www.w3.org/2000/svg" viewBox="0 0 445 139.482">
  <defs>
    <style>
      .cls-1 {
        fill: #ffe200;
      }

      .cls-2 {
        fill: #e62310;
      }

      .cls-3 {
        fill: #3f99d5;
      }
    </style>
  </defs>
  <path id="パス_976" data-name="パス 976" class="cls-1" d="M367.282,22.532,344.75,0,297.541,47.209,250.332,0,227.8,22.532l47.209,47.209L227.8,116.95l22.532,22.532,47.209-47.209,47.209,47.209,22.532-22.532L320.072,69.741Z" transform="translate(77.718)"/>
  <path id="パス_977" data-name="パス 977" class="cls-2" d="M253.382,22.532,230.85,0,183.641,47.209,136.432,0,113.9,22.532l47.209,47.209L113.9,116.95l22.532,22.532,47.209-47.209,47.209,47.209,22.532-22.532L206.172,69.741Z" transform="translate(38.859)"/>
  <path id="パス_978" data-name="パス 978" class="cls-3" d="M139.482,22.532,116.95,0,69.741,47.209,22.532,0,0,22.532,47.209,69.741,0,116.95l22.532,22.532L69.741,92.273l47.209,47.209,22.532-22.532L92.272,69.741Z"/>
</svg>
